# Blender 5.0.1
# www.blender.org
mtllib cofre.mtl
o cofre
v 2.249921 -0.297638 -3.897918
v 1.767435 -0.276097 -3.932384
v 2.230534 -0.267482 -3.872072
v 1.767435 -0.245942 -3.902228
v 1.104014 -0.252404 -3.966844
v 2.245611 -0.211481 -3.531744
v 1.105090 -0.224401 -3.936689
v 1.540191 -0.183478 -3.553284
v 0.694221 -0.157632 -3.574825
v 0.483405 -0.211481 -3.962539
v 0.483405 -0.237326 -3.992690
v 0.694221 -0.067165 -2.980331
v 1.538038 -0.095163 -2.971716
v 2.269305 -0.125319 -2.963100
v 2.264999 -0.228711 -3.527439
v 0.001187 -0.146859 -3.574825
v 0.001187 -0.058550 -2.984641
v 0.001187 -0.207171 -3.971154
v 0.001187 -0.235174 -3.997000
v 0.001187 0.051305 -2.226448
v 0.694221 0.042690 -2.226448
v 1.534804 0.008224 -2.226448
v 2.301613 -0.026237 -2.226448
v 2.288692 -0.144707 -2.958790
v -0.481030 -0.211481 -3.962539
v -0.691847 -0.157632 -3.574825
v -0.691847 -0.067165 -2.980331
v -0.481030 -0.237326 -3.992690
v 1.532652 0.113769 -1.386402
v 0.001187 0.154693 -1.386402
v -0.691847 0.042690 -2.226448
v 0.694221 0.146078 -1.386402
v 2.336079 0.072845 -1.382097
v 2.321001 -0.045625 -2.222138
v -1.104869 -0.224401 -3.936689
v -1.102716 -0.252404 -3.966844
v -1.537816 -0.183478 -3.553284
v -1.535663 -0.095163 -2.971716
v 0.694221 0.240855 -0.561435
v 1.529423 0.212852 -0.557130
v 0.001187 0.249470 -0.561435
v -0.691847 0.146078 -1.386402
v -1.763979 -0.245942 -3.902228
v -2.243237 -0.211481 -3.531744
v 2.370540 0.167618 -0.552820
v 2.355462 0.055611 -1.382097
v -1.766137 -0.276097 -3.932384
v -2.228159 -0.267482 -3.872072
v 0.001187 0.301162 -0.124182
v 0.694221 0.294703 -0.100489
v -0.691847 0.240855 -0.561435
v 1.527265 0.275316 -0.016484
v 2.389927 0.219314 -0.094026
v 2.389927 0.150387 -0.550667
v -2.247547 -0.297638 -3.897918
v -0.691847 0.294703 -0.100489
v 0.001187 0.286084 -0.100489
v 0.693683 0.281778 -0.076796
v 2.163760 0.253775 0.091213
v 1.526189 0.260238 0.005056
v 2.411468 0.202080 -0.083258
v -0.691308 0.281778 -0.076796
v -1.527048 0.212852 -0.557130
v -1.524891 0.275316 -0.016484
v 2.168070 0.238697 0.114907
v -1.523815 0.260238 0.005056
v -2.387553 0.219314 -0.094026
v -2.161385 0.253775 0.091213
v -2.165695 0.238697 0.114907
v -2.409093 0.202080 -0.083258
v -2.368165 0.167618 -0.552820
v -2.333704 0.072845 -1.382097
v -1.530277 0.113769 -1.386402
v -2.387553 0.150387 -0.550667
v -2.353087 0.055611 -1.382097
v -2.299238 -0.026237 -2.226448
v -2.318626 -0.045625 -2.222138
v -1.532430 0.008224 -2.226448
v -2.266930 -0.125319 -2.963100
v -2.286318 -0.144707 -2.958790
v -2.262625 -0.228711 -3.527439
v -1.547508 0.057768 -1.382097
v -1.523815 0.260238 0.009362
v 0.001187 0.111617 -1.377787
v 1.549882 0.057768 -1.382097
v -1.509813 -0.144707 -2.958790
v 0.001112 -0.103779 -2.963100
v 1.512188 -0.144707 -2.958790
v -2.249700 -0.299790 -3.906533
v -2.241084 -0.297638 -3.897918
v -1.765060 -0.276097 -3.932384
v 2.252074 -0.299790 -3.906533
v 2.243459 -0.297638 -3.897918
v 2.258537 -0.297638 -3.897918
v 2.260689 -0.291175 -3.897918
v 2.284383 -0.271788 -3.876378
v 2.260689 -0.289023 -3.876378
v -1.532430 -0.039162 -2.144596
v 0.001187 0.008224 -2.148906
v 1.534804 -0.039162 -2.144596
vn 0.0610 0.0092 -0.9981
vn 0.0508 0.9858 -0.1601
vn 0.0454 0.9868 -0.1553
vn 0.0445 0.0029 -0.9990
vn 0.0464 0.9864 -0.1575
vn 0.0311 0.9880 -0.1514
vn 0.0432 0.9871 -0.1541
vn 0.0318 0.9880 -0.1511
vn 0.0213 0.9879 -0.1534
vn 0.0329 0.0018 -0.9995
vn 0.0330 0.9879 -0.1513
vn 0.0415 0.9878 -0.1501
vn 0.0440 0.9879 -0.1489
vn 0.9990 -0.0209 -0.0383
vn 0.9990 -0.0209 -0.0384
vn -0.0000 0.9888 -0.1491
vn -0.0000 0.9884 -0.1517
vn 0.0180 0.9878 -0.1546
vn 0.0287 0.0007 -0.9996
vn -0.0000 0.9918 -0.1276
vn 0.0295 0.9914 -0.1278
vn 0.0445 0.9904 -0.1311
vn 0.0474 0.9903 -0.1309
vn 0.9990 -0.0241 -0.0384
vn -0.0213 0.9879 -0.1534
vn -0.0318 0.9880 -0.1512
vn -0.0342 0.9890 -0.1442
vn -0.0329 0.0019 -0.9995
vn 0.0474 0.9914 -0.1222
vn -0.0000 0.9928 -0.1198
vn -0.0363 0.9901 -0.1355
vn 0.0367 0.9920 -0.1210
vn 0.0520 0.9913 -0.1209
vn 0.9991 -0.0162 -0.0399
vn -0.0312 0.9880 -0.1514
vn -0.0446 0.0028 -0.9990
vn -0.0433 0.9871 -0.1541
vn -0.0415 0.9878 -0.1500
vn 0.0336 0.9933 -0.1104
vn 0.0496 0.9924 -0.1128
vn -0.0000 0.9936 -0.1129
vn -0.0351 0.9927 -0.1157
vn -0.0454 0.9868 -0.1553
vn -0.1169 0.9838 0.1359
vn 0.0582 0.9919 -0.1131
vn 0.9991 -0.0035 -0.0417
vn -0.0609 0.0092 -0.9981
vn 0.3023 0.7506 -0.5875
vn 0.0262 0.9937 -0.1091
vn 0.0330 0.9933 -0.1106
vn -0.0336 0.9933 -0.1104
vn 0.0500 0.9924 -0.1123
vn 0.0578 0.9920 -0.1122
vn 0.9990 0.0082 -0.0429
vn -0.0330 0.9933 -0.1106
vn -0.0403 0.1798 0.9829
vn -0.0519 0.1772 0.9828
vn 0.0580 0.9920 -0.1121
vn -0.1253 0.1666 0.9780
vn 0.9505 0.0487 0.3069
vn 0.0518 0.1772 0.9828
vn -0.0496 0.9924 -0.1128
vn -0.0500 0.9924 -0.1123
vn -0.1253 0.1667 0.9780
vn 0.6413 0.0988 0.7609
vn 0.1253 0.1666 0.9780
vn 0.0790 0.9476 0.3094
vn -0.0579 0.9920 -0.1121
vn 0.1252 0.1667 0.9780
vn -0.9505 0.0486 0.3070
vn -0.9505 0.0487 0.3069
vn -0.6411 0.0989 0.7610
vn 0.1525 0.9821 0.1110
vn 0.1548 0.9824 0.1049
vn -0.0474 0.9914 -0.1222
vn 0.1818 0.9762 0.1181
vn -0.0445 0.9904 -0.1311
vn 0.1859 0.9772 0.1025
vn -0.8630 0.2172 0.4561
vn -0.0000 -0.9914 0.1312
vn -0.0000 -0.9913 0.1313
vn -0.0000 -0.9914 0.1311
vn -0.0281 0.9530 -0.3016
vn -0.0705 0.9800 -0.1864
vn -0.0334 0.9816 -0.1879
vn 0.0660 0.9468 -0.3149
vn 0.0022 0.9781 -0.2079
vn 0.0705 0.9800 -0.1861
vn 0.0750 0.9517 -0.2976
vn -0.7738 0.6130 -0.1599
vn -0.9877 0.1558 0.0156
vn -0.8641 0.2482 0.4379
vt 0.248291 0.807739
vt 0.247314 0.780396
vt 0.249146 0.806641
vt 0.248169 0.780273
vt 0.246094 0.742676
vt 0.260010 0.807495
vt 0.247070 0.742920
vt 0.259277 0.767456
vt 0.258789 0.719482
vt 0.246216 0.707520
vt 0.245239 0.707520
vt 0.277832 0.719482
vt 0.278076 0.767334
vt 0.278564 0.808838
vt 0.260254 0.808594
vt 0.258545 0.680176
vt 0.277832 0.680176
vt 0.245972 0.680176
vt 0.245117 0.680176
vt 0.302246 0.680176
vt 0.302246 0.719482
vt 0.302246 0.767212
vt 0.302246 0.810547
vt 0.278564 0.809937
vt 0.246216 0.652832
vt 0.258789 0.640869
vt 0.277832 0.640869
vt 0.245239 0.652832
vt 0.329346 0.766968
vt 0.329102 0.680176
vt 0.302246 0.640869
vt 0.329102 0.719482
vt 0.329346 0.812500
vt 0.302246 0.811646
vt 0.247070 0.617432
vt 0.246094 0.617676
vt 0.259277 0.593018
vt 0.278076 0.593262
vt 0.355957 0.719482
vt 0.355957 0.766846
vt 0.355713 0.680176
vt 0.329102 0.640869
vt 0.248169 0.580078
vt 0.260010 0.552979
vt 0.355957 0.814575
vt 0.329346 0.813721
vt 0.247314 0.580078
vt 0.249146 0.553711
vt 0.369873 0.680176
vt 0.370605 0.719482
vt 0.355957 0.640869
vt 0.373291 0.766724
vt 0.370850 0.815674
vt 0.356201 0.815674
vt 0.248291 0.552734
vt 0.370605 0.640869
vt 0.370605 0.680176
vt 0.371338 0.719482
vt 0.376953 0.802734
vt 0.374023 0.766724
vt 0.371094 0.816772
vt 0.371338 0.640869
vt 0.355957 0.593506
vt 0.373291 0.593750
vt 0.377686 0.803101
vt 0.374023 0.593750
vt 0.370850 0.544922
vt 0.376953 0.557617
vt 0.377686 0.557373
vt 0.371094 0.543701
vt 0.355957 0.545898
vt 0.329346 0.547852
vt 0.329346 0.593506
vt 0.302246 0.549805
vt 0.302246 0.593262
vt 0.278564 0.551758
vt 0.260254 0.552002
vt 0.979004 0.016113
vt 0.980469 0.014160
vt 0.979004 0.014160
vt 0.981445 0.014648
vt 0.980957 0.014160
vt 0.981445 0.016602
vt 0.980957 0.018555
vt 0.979004 0.020508
vt 0.980957 0.020508
vt 0.980957 0.022461
vt 0.979004 0.024902
vt 0.981445 0.024902
vt 0.981445 0.026855
vt 0.980469 0.027344
vt 0.979004 0.027344
vt 0.980957 0.027344
vt 0.976563 0.016602
vt 0.976563 0.014160
vt 0.975586 0.014160
vt 0.975098 0.015625
vt 0.975098 0.014160
vt 0.975098 0.017578
vt 0.976563 0.020508
vt 0.974609 0.019531
vt 0.974609 0.020508
vt 0.974609 0.021973
vt 0.975098 0.023926
vt 0.976563 0.024902
vt 0.975098 0.025391
vt 0.975586 0.026855
vt 0.976563 0.026855
vt 0.975098 0.026855
vt 0.248291 0.553223
vt 0.248047 0.552490
vt 0.248291 0.807251
vt 0.248047 0.807861
vt 0.248291 0.808228
vt 0.249023 0.809570
vt 0.249023 0.808350
vt 0.977539 0.016602
vt 0.977539 0.014160
vt 0.977539 0.020508
vt 0.977539 0.024902
vt 0.977539 0.027344
s 1
usemtl carPaint
f 1/1/1 2/2/1 3/3/2
f 4/4/3 3/3/2 2/2/1
f 5/5/4 4/4/3 2/2/1
f 4/4/3 6/6/5 3/3/2
f 4/4/3 5/5/4 7/7/6
f 8/8/7 4/4/3 7/7/6
f 6/6/5 4/4/3 8/8/7
f 8/8/7 7/7/6 9/9/8
f 10/10/9 9/9/8 7/7/6
f 5/5/4 10/10/9 7/7/6
f 10/10/9 5/5/4 11/11/10
f 12/12/11 8/8/7 9/9/8
f 8/8/7 12/12/11 13/13/12
f 13/13/12 6/6/5 8/8/7
f 6/6/5 13/13/12 14/14/13
f 15/15/14 3/3/2 6/6/5
f 6/6/5 14/14/13 15/15/14
f 3/3/2 15/15/14 1/1/15
f 16/16/16 9/9/8 10/10/9
f 9/9/8 17/17/17 12/12/11
f 9/9/8 16/16/16 17/17/17
f 10/10/9 18/18/18 16/16/16
f 11/11/10 18/18/18 10/10/9
f 11/11/10 19/19/19 18/18/18
f 20/20/20 12/12/11 17/17/17
f 12/12/11 20/20/20 21/21/21
f 13/13/12 12/12/11 21/21/21
f 13/13/12 21/21/21 22/22/22
f 22/22/22 14/14/13 13/13/12
f 14/14/13 22/22/22 23/23/23
f 24/24/24 15/15/14 14/14/13
f 14/14/13 23/23/23 24/24/24
f 25/25/25 16/16/16 18/18/18
f 26/26/26 17/17/17 16/16/16
f 16/16/16 25/25/25 26/26/26
f 27/27/27 20/20/20 17/17/17
f 17/17/17 26/26/26 27/27/27
f 28/28/28 18/18/18 19/19/19
f 18/18/18 28/28/28 25/25/25
f 22/22/22 21/21/21 29/29/29
f 29/29/29 23/23/23 22/22/22
f 21/21/21 20/20/20 30/30/30
f 31/31/31 30/30/30 20/20/20
f 20/20/20 27/27/27 31/31/31
f 21/21/21 30/30/30 32/32/32
f 21/21/21 32/32/32 29/29/29
f 23/23/23 29/29/29 33/33/33
f 34/34/34 24/24/24 23/23/23
f 23/23/23 33/33/33 34/34/34
f 25/25/25 35/35/35 26/26/26
f 25/25/25 36/36/36 35/35/35
f 36/36/36 25/25/25 28/28/28
f 37/37/37 26/26/26 35/35/35
f 37/37/37 27/27/27 26/26/26
f 27/27/27 37/37/37 38/38/38
f 38/38/38 31/31/31 27/27/27
f 39/39/39 29/29/29 32/32/32
f 29/29/29 39/39/39 40/40/40
f 40/40/40 33/33/33 29/29/29
f 32/32/32 41/41/41 39/39/39
f 41/41/41 32/32/32 30/30/30
f 42/42/42 41/41/41 30/30/30
f 30/30/30 31/31/31 42/42/42
f 37/37/37 35/35/35 43/43/43
f 36/36/36 43/43/43 35/35/35
f 44/44/44 38/38/38 37/37/37
f 44/44/44 37/37/37 43/43/43
f 33/33/33 40/40/40 45/45/45
f 46/46/46 34/34/34 33/33/33
f 33/33/33 45/45/45 46/46/46
f 43/43/43 36/36/36 47/47/47
f 43/43/43 48/48/48 44/44/44
f 48/48/48 43/43/43 47/47/47
f 39/39/39 41/41/41 49/49/49
f 50/50/50 40/40/40 39/39/39
f 39/39/39 49/49/49 50/50/50
f 41/41/41 42/42/42 51/51/51
f 51/51/51 49/49/49 41/41/41
f 40/40/40 50/50/50 52/52/52
f 53/53/53 40/40/40 52/52/52
f 40/40/40 53/53/53 45/45/45
f 45/45/45 53/53/53 54/54/54
f 54/54/54 46/46/46 45/45/45
f 48/48/48 47/47/47 55/55/47
f 49/49/49 51/51/51 56/56/55
f 56/56/55 57/57/56 49/49/49
f 50/50/50 49/49/49 57/57/56
f 50/50/50 57/57/56 58/58/57
f 58/58/57 52/52/52 50/50/50
f 53/53/53 52/52/52 59/59/58
f 60/60/59 59/59/58 52/52/52
f 52/52/52 58/58/57 60/60/59
f 53/53/53 61/61/54 54/54/54
f 59/59/58 61/61/60 53/53/53
f 62/62/61 57/57/56 56/56/55
f 63/63/62 56/56/55 51/51/51
f 64/64/63 62/62/61 56/56/55
f 56/56/55 63/63/62 64/64/63
f 59/59/58 60/60/59 65/65/64
f 65/65/65 61/61/60 59/59/58
f 62/62/61 64/64/63 66/66/66
f 63/63/62 67/67/67 64/64/63
f 68/68/68 66/66/66 64/64/63
f 67/67/67 68/68/68 64/64/63
f 66/66/66 68/68/68 69/69/69
f 70/70/70 68/68/68 67/67/67
f 70/70/71 69/69/72 68/68/68
f 67/67/67 63/63/62 71/71/73
f 63/63/62 72/72/74 71/71/73
f 72/72/74 63/63/62 73/73/75
f 51/51/51 73/73/75 63/63/62
f 73/73/75 76/74/76 72/72/74
f 73/73/75 51/51/51 42/42/42
f 31/31/31 73/73/75 42/42/42
f 73/73/75 31/31/31 78/75/77
f 76/74/76 73/73/75 78/75/77
f 78/75/77 79/76/78 76/74/76
f 31/31/31 38/38/38 78/75/77
f 79/76/78 78/75/77 38/38/38
f 38/38/38 44/44/44 79/76/78
f 48/48/48 81/77/79 44/44/44
f 82/78/80 74/79/80 75/80/81
f 69/81/80 74/79/80 82/78/80
f 74/79/80 69/81/80 70/82/80
f 82/78/80 83/83/81 69/81/80
f 82/78/80 62/84/80 83/83/81
f 62/84/80 82/78/80 84/85/80
f 84/85/80 57/86/80 62/84/80
f 84/85/80 58/87/80 57/86/80
f 85/88/80 58/87/80 84/85/80
f 58/87/80 85/88/80 60/89/81
f 85/88/80 65/90/80 60/89/81
f 54/91/80 65/90/80 85/88/80
f 85/88/80 46/92/81 54/91/80
f 65/90/80 54/91/80 61/93/80
f 86/94/80 80/95/81 81/96/80
f 47/97/81 86/94/80 81/96/80
f 55/98/81 47/97/81 81/96/80
f 36/99/80 86/94/80 47/97/81
f 36/99/80 87/100/82 86/94/80
f 28/101/80 87/100/82 36/99/80
f 19/102/80 87/100/82 28/101/80
f 19/102/80 11/103/80 87/100/82
f 11/103/80 5/104/80 87/100/82
f 5/104/80 88/105/80 87/100/82
f 5/104/80 2/106/80 88/105/80
f 88/105/80 2/106/80 15/107/80
f 24/108/81 88/105/80 15/107/80
f 15/107/80 2/106/80 1/109/81
f 90/110/83 91/47/84 89/111/85
f 93/112/86 92/113/87 2/2/88
f 92/113/87 93/112/86 94/114/89
f 96/115/90 95/114/91 97/116/92
f 95/114/91 94/114/91 97/116/92
f 98/117/80 75/80/81 77/118/80
f 98/117/80 82/78/80 75/80/81
f 98/117/80 77/118/80 80/95/81
f 98/117/80 84/85/80 82/78/80
f 98/117/80 80/95/81 86/94/80
f 84/85/80 98/117/80 99/119/81
f 86/94/80 99/119/81 98/117/80
f 99/119/81 86/94/80 87/100/82
f 87/100/82 88/105/80 99/119/81
f 100/120/80 99/119/81 88/105/80
f 100/120/80 84/85/80 99/119/81
f 84/85/80 100/120/80 85/88/80
f 100/120/80 88/105/80 24/108/81
f 100/120/80 24/108/81 34/121/80
f 100/120/80 34/121/80 46/92/81
f 100/120/80 46/92/81 85/88/80
