# Blender 5.1.1
# www.blender.org
mtllib octaedrod8.mtl
g Octaedro_Malla
v 0.706788 1.002330 -0.710667
v -0.000319 2.002330 -0.003561
v 0.706788 1.002330 0.703546
v -0.000319 2.002330 -0.003561
v -0.707426 1.002330 0.703546
v 0.706788 1.002330 0.703546
v -0.707426 1.002330 0.703546
v -0.000319 0.002330 -0.003561
v 0.706788 1.002330 0.703546
v 0.706788 1.002330 0.703546
v -0.000319 0.002330 -0.003561
v 0.706788 1.002330 -0.710667
v -0.707426 1.002330 -0.710667
v -0.000319 2.002330 -0.003561
v 0.706788 1.002330 -0.710667
v -0.707426 1.002330 -0.710667
v -0.707426 1.002330 0.703546
v -0.000319 2.002330 -0.003561
v -0.707426 1.002330 -0.710667
v -0.000319 0.002330 -0.003561
v -0.707426 1.002330 0.703546
v -0.707426 1.002330 -0.710667
v 0.706788 1.002330 -0.710667
v -0.000319 0.002330 -0.003561
vn 0.8165 0.5774 -0.0000
vn -0.0000 0.5774 0.8165
vn -0.0000 -0.5774 0.8165
vn 0.8165 -0.5774 -0.0000
vn -0.0000 0.5774 -0.8165
vn -0.8165 0.5774 -0.0000
vn -0.8165 -0.5774 -0.0000
vn -0.0000 -0.5774 -0.8165
vt 0.667840 0.399237
vt 0.348081 0.203076
vt 0.667421 0.010138
vt 0.343430 0.213927
vt 0.646850 0.400787
vt 0.338780 0.594562
vt 0.995798 0.606912
vt 0.674896 0.803314
vt 0.994798 0.989564
vt 0.335308 0.616756
vt 0.655210 0.802084
vt 0.333078 0.995716
vt 0.004658 0.005381
vt 0.324735 0.201234
vt 0.000653 0.397388
vt 0.327529 0.596166
vt 0.003851 0.405076
vt 0.332260 0.207790
vt 0.986825 0.602433
vt 0.667489 0.795792
vt 0.671039 0.407031
vt 0.344247 0.607316
vt 0.660653 0.411027
vt 0.662259 0.799823
s 0
g off
g Octaedro_Material.001
usemtl Material.001
f 1/1/1 2/2/1 3/3/1
f 4/4/2 5/5/2 6/6/2
f 7/7/3 8/8/3 9/9/3
f 10/10/4 11/11/4 12/12/4
f 13/13/5 14/14/5 15/15/5
f 16/16/6 17/17/6 18/18/6
f 19/19/7 20/20/7 21/21/7
f 22/22/8 23/23/8 24/24/8
