# Blender 5.0.1
# www.blender.org
mtllib Pecera.mtl
g Pecera_Malla
v -7.960942 5.435438 3.990893
v -7.960941 -0.000530 3.990893
v -7.960942 5.435438 -3.989140
v -7.960941 -0.000530 -3.989140
v -7.984032 -0.025273 3.986578
v 7.984032 -0.025273 3.986578
v -7.984033 5.451308 3.986578
v 7.984031 5.451308 3.986578
v -7.984032 0.000000 3.990017
v 7.984032 -0.000000 3.990017
v -7.984032 0.000000 -3.990017
v 7.984032 -0.000000 -3.990017
v 7.979684 5.435437 3.990893
v 7.979684 -0.000531 3.990893
v 7.979684 5.435437 -3.989140
v 7.979684 -0.000531 -3.989140
v -7.984032 -0.025273 -3.962381
v 7.984032 -0.025273 -3.962381
v -7.984033 5.451309 -3.962380
v 7.984032 5.451308 -3.962380
v -7.984032 5.460003 3.990017
v 7.984032 5.460003 3.990017
v -7.984032 5.460003 -3.990017
v 7.984032 5.460003 -3.990017
v -7.990942 5.435438 3.990893
v -7.990942 -0.000530 3.990893
v -7.990942 5.435438 -3.989140
v -7.990942 -0.000530 -3.989140
v -7.984032 -0.025273 3.866877
v 7.984032 -0.025273 3.866877
v -7.984033 5.451308 3.866878
v 7.984031 5.451308 3.866878
v -7.984032 -0.081540 3.990017
v 7.984032 -0.081540 3.990017
v -7.984032 -0.081540 -3.990017
v 7.984032 -0.081540 -3.990017
v 7.949684 5.435437 3.990893
v 7.949684 -0.000531 3.990893
v 7.949684 5.435437 -3.989140
v 7.949684 -0.000531 -3.989140
v -7.984032 -0.025273 -4.082081
v 7.984032 -0.025273 -4.082081
v -7.984033 5.451309 -4.082081
v 7.984032 5.451308 -4.082081
v -7.984032 5.378464 3.990017
v 7.984032 5.378463 3.990017
v -7.984032 5.378464 -3.990017
v 7.984032 5.378463 -3.990017
vn 1.0000 -0.0000 -0.0000
vn -0.0000 -0.0000 1.0000
vn -0.0000 1.0000 -0.0000
vn -1.0000 -0.0000 -0.0000
vn -0.0000 -0.0000 -1.0000
vn -0.0000 -1.0000 -0.0000
vt 0.000000 0.000000
vt 1.000000 1.000000
vt 0.000000 1.000000
vt 1.000000 0.000000
vt 0.000000 1.000000
vt 0.000000 0.000000
s 0
g off
g Pecera_PeceraL2
usemtl PeceraL2
f 2/1/1 3/2/1 1/3/1
f 6/4/2 7/5/2 5/6/2
f 2/1/1 4/4/1 3/2/1
f 6/4/2 8/2/2 7/5/2
f 26/1/4 25/3/4 27/2/4
f 30/4/5 29/6/5 31/5/5
f 26/1/4 27/2/4 28/4/4
f 30/4/5 31/5/5 32/2/5
f 3/2/3 25/3/3 1/3/3
f 1/3/2 26/1/2 2/1/2
f 2/1/6 28/4/6 4/4/6
f 4/4/5 27/2/5 3/2/5
f 7/5/4 29/6/4 5/6/4
f 5/6/6 30/4/6 6/4/6
f 6/4/1 32/2/1 8/2/1
f 8/2/3 31/5/3 7/5/3
f 3/2/3 27/2/3 25/3/3
f 1/3/2 25/3/2 26/1/2
f 2/1/6 26/1/6 28/4/6
f 4/4/5 28/4/5 27/2/5
f 7/5/4 31/5/4 29/6/4
f 5/6/6 29/6/6 30/4/6
f 6/4/1 30/4/1 32/2/1
f 8/2/3 32/2/3 31/5/3
g Pecera_FondoPecera
usemtl FondoPecera
f 10/4/3 11/5/3 9/6/3
f 10/4/3 12/2/3 11/5/3
f 34/4/6 33/6/6 35/5/6
f 34/4/6 35/5/6 36/2/6
f 11/5/4 33/6/4 9/6/4
f 9/6/2 34/4/2 10/4/2
f 10/4/1 36/2/1 12/2/1
f 12/2/5 35/5/5 11/5/5
f 11/5/4 35/5/4 33/6/4
f 9/6/2 33/6/2 34/4/2
f 10/4/1 34/4/1 36/2/1
f 12/2/5 36/2/5 35/5/5
g Pecera_PeceraL1
usemtl PeceraL1
f 14/1/1 15/2/1 13/3/1
f 18/4/2 19/5/2 17/6/2
f 14/1/1 16/4/1 15/2/1
f 18/4/2 20/2/2 19/5/2
f 38/1/4 37/3/4 39/2/4
f 42/4/5 41/6/5 43/5/5
f 38/1/4 39/2/4 40/4/4
f 42/4/5 43/5/5 44/2/5
f 15/2/3 37/3/3 13/3/3
f 13/3/2 38/1/2 14/1/2
f 14/1/6 40/4/6 16/4/6
f 16/4/5 39/2/5 15/2/5
f 19/5/4 41/6/4 17/6/4
f 17/6/6 42/4/6 18/4/6
f 18/4/1 44/2/1 20/2/1
f 20/2/3 43/5/3 19/5/3
f 15/2/3 39/2/3 37/3/3
f 13/3/2 37/3/2 38/1/2
f 14/1/6 38/1/6 40/4/6
f 16/4/5 40/4/5 39/2/5
f 19/5/4 43/5/4 41/6/4
f 17/6/6 41/6/6 42/4/6
f 18/4/1 42/4/1 44/2/1
f 20/2/3 44/2/3 43/5/3
g Pecera_SuperficiePecera
usemtl SuperficiePecera
f 22/4/3 23/5/3 21/6/3
f 22/4/3 24/2/3 23/5/3
f 46/4/6 45/6/6 47/5/6
f 46/4/6 47/5/6 48/2/6
f 23/5/4 45/6/4 21/6/4
f 21/6/2 46/4/2 22/4/2
f 22/4/1 48/2/1 24/2/1
f 24/2/5 47/5/5 23/5/5
f 23/5/4 47/5/4 45/6/4
f 21/6/2 45/6/2 46/4/2
f 22/4/1 46/4/1 48/2/1
f 24/2/5 48/2/5 47/5/5
